<?xml version="1.0" encoding="utf-8"?>
<!-- Generator: Adobe Illustrator 27.8.1, SVG Export Plug-In . SVG Version: 6.00 Build 0)  -->
<svg version="1.1" id="Layer_1" xmlns="http://www.w3.org/2000/svg" xmlns:xlink="http://www.w3.org/1999/xlink" x="0px" y="0px"
	 viewBox="0 0 513 586" style="enable-background:new 0 0 513 586;" xml:space="preserve">
<style type="text/css">
	.st0{fill:#FFFFFF;}
	.st1{fill:#B7B7B7;}
</style>
<path class="st0" d="M52.53,76.51c1.57-1.59,1.41-3.61,1.4-5.6c-0.06-11.46-0.11-22.93-0.18-34.39c-0.01-2,0.07-3.94,0.78-5.87
	c1.58-4.33,5.78-7.89,11.39-5.17c3.83,1.86,7.75,3.54,11.55,5.46c12.77,6.43,25.74,12.44,38.84,18.16
	c7.36,3.21,14.44,7.06,21.74,10.42c11.9,5.48,23.85,10.88,35.85,16.15c3.08,1.35,4.54,2.94,4.38,6.61
	c-0.3,6.96,0.03,13.95,0.15,20.93c0.03,1.67-0.16,2.48-2.09,1.49c-2.32-1.2-4.78-2.13-7.16-3.21
	c-13.53-6.17-27.08-12.29-40.58-18.53c-14.29-6.61-28.41-13.59-42.89-19.79c-0.6-0.26-1.2-0.5-1.8-0.75
	c-3.67-1.51-4.24-1.17-4.24,2.79c-0.02,35.08-0.02,70.16-0.02,105.25c0,39.24,0,78.48,0,117.72c0,1.33-0.01,2.66,0,3.99
	c0.04,3.82,0,4.01,3.82,4.84c7.07,1.53,13.92,3.77,20.85,5.81c18.87,5.54,37.17,12.54,55.09,20.57
	c15.1,6.76,29.32,15.11,42.43,25.13c11.6,8.88,22.15,18.99,30.14,31.44c3.29,5.13,5.8,10.66,8.27,16.21
	c0.33,0.75,0.7,1.49,0.94,2.26c0.34,1.09,0.95,1.66,2.15,1.59c1.21-0.07,1.56-0.79,1.97-1.83c1.55-3.95,3.07-7.93,4.92-11.75
	c5.13-10.57,12.78-19.21,21.2-27.26c15.81-15.11,34.29-26.05,54.06-35.06c23.26-10.6,47.41-18.68,71.91-25.8
	c1.57-0.46,3.21-0.66,4.8-1.11c3.53-0.98,3.6-0.88,3.62-4.38c0.06-13.47,0.11-26.93,0.11-40.4c-0.02-62.01-0.07-124.02-0.1-186.03
	c0-5.62-0.04-5.66-4.95-3.41c-29.7,13.58-59.4,27.17-89.1,40.76c-0.15,0.07-0.28,0.19-0.43,0.26c-3.25,1.48-3.25,1.47-3.3-2.02
	c-0.06-4.64,0.1-9.27-0.66-13.9c-0.49-2.94-0.15-6.01,0.57-8.88c0.88-3.48,4.58-3.42,7.09-4.6c17.94-8.45,35.99-16.63,53.98-24.98
	c16.79-7.79,33.55-15.66,50.31-23.55c5.61-2.64,10.65,0.05,11.46,6.27c0.15,1.14,0.04,2.32,0.04,3.49c0,11.14,0.03,22.28-0.02,33.42
	c-0.01,2.51,0.02,4.97,1.2,7.26c-0.06,1.82-0.18,3.65-0.18,5.47c0.01,36.22,0.06,72.43,0.05,108.65
	c-0.01,39.71-0.06,79.41-0.1,119.12c-0.01,6.17-1.09,7.75-7.17,9.42c-6.77,1.86-13.64,3.34-20.4,5.23c-8.81,2.47-17.62,5-26.31,7.84
	c-7.74,2.54-15.48,5.2-22.96,8.42c-11.16,4.81-22.23,9.85-32.92,15.73c-10.4,5.72-20.66,11.63-30.17,18.77
	c-0.5,0.37-1.43,0.59-1.25,1.36c0.18,0.79,1.05,0.45,1.62,0.45c6.31-0.01,12.62-0.06,18.93-0.1c1.79,0.98,3.66,1.31,5.73,1.31
	c30.58-0.11,61.17-0.16,91.76-0.19c14.8-0.02,29.59,0.04,44.39,0.03c3.54,0,4.06-0.45,3.27-3.59c-0.54-2.16-0.5-4.28-0.5-6.42
	c-0.02-48.39,0-96.78-0.02-145.17c-0.01-48.71-0.05-97.43-0.08-146.14c0-6.39,1.17-7.34,7.47-5.86c11.31,2.64,18.2,11.1,18.23,23.23
	c0.04,18.29,0.1,36.58-0.03,54.87c-0.06,7.96-0.48,15.96-0.31,23.87c0.81,38.22,0.11,76.45,0.32,114.67
	c0.16,30.43,0.01,60.86,0.06,91.29c0.01,5.31-0.35,10.6-0.54,15.89c-0.18,5.11-6.17,10.68-10.79,10.36
	c-5.3-0.37-10.64-0.08-15.96-0.08c-51.21,0-102.42,0-153.64,0c-1,0-2,0.04-2.99-0.01c-1.83-0.08-2.75,0.42-3.54,2.47
	c-7.17,18.59-20.76,29.8-40.24,33.53c-15.68,3-30.51,0.86-43.53-9.14c-7.47-5.74-13.08-13.01-17.08-21.54
	c-2.5-5.32-2.52-5.31-8.43-5.31c-55.87,0-111.74-0.15-167.6,0.15c-8.89,0.05-13-6.6-13.36-12.72c-0.07-1.16-0.02-2.33-0.02-3.49
	c0-99.11,0.13-198.21-0.18-297.32C3.55,80.75,14.31,69.46,26.8,70.54c1.81,0.16,2.24,0.91,2.14,2.48c-0.07,1.16-0.01,2.33-0.01,3.49
	c0,43.23,0,86.47,0,129.7c0,35.91,0,71.82,0,107.74c0,19.78-0.01,39.56,0.01,59.35c0,4.51-0.89,4.71,4.42,4.72
	c31.92,0.04,63.84,0.13,95.76,0.14c13.3,0,26.6-0.18,39.89-0.2c2.2,0,4.28-0.3,6.3-1.15c5.82,0.06,11.63,0.13,17.45,0.18
	c0.44,0,0.89-0.19,1.33-0.29c-0.23-0.41-0.37-0.94-0.72-1.2c-3.82-2.86-7.83-5.45-11.76-8.14c-13.62-9.32-28.24-16.72-43.24-23.5
	c-9.42-4.26-19.11-7.72-28.81-11.18c-5.39-1.92-10.83-3.77-16.3-5.36c-10.32-3.01-20.7-5.9-31.42-7.37
	c-2.42-0.33-4.59-1.61-6.45-3.93c-2.29-2.87-2.6-5.76-2.6-9c-0.02-74-0.03-148-0.06-222C52.74,82.16,52.6,79.34,52.53,76.51z"/>
<path class="st0" d="M242.27,175.57c-41.39,0-82.79,0.01-124.18-0.02c-2.64,0-5.91,0.68-7.74-0.59c-2.08-1.45-0.64-4.94-0.73-7.52
	c-0.07-2.06-0.57-2.93-2.81-2.91c-2.61,0.03-5.93,1.22-7.69-0.58c-1.89-1.95-0.64-5.35-0.69-8.1c-0.11-6.44-0.04-6.44,6.57-6.44
	c3.16,0,6.32-0.12,9.47,0.04c2.26,0.12,3.05-0.45,3.23-2.95c0.56-7.76-0.73-14.81-6.25-20.68c-0.42-0.44-0.84-1.23-0.73-1.74
	c0.21-1.05,1.28-0.75,2.03-0.74c14.95,0.02,29.91,0.08,44.86,0.08c12.13,0,24.26-0.03,36.4-0.11c3.08-0.02,3.2-0.14,3.12-3.33
	c-0.17-7.29-0.47-14.58-0.7-21.87c-0.03-0.83-0.01-1.66,0-2.49c0.06-3.79,0.06-3.79,3.71-3.79c3.49,0,6.98,0,10.47-0.01
	c1.83-0.01,2.73-0.83,2.53-2.77c-0.12-1.15-0.02-2.33-0.02-3.49c-0.01-4.98,0-5.02-5.18-5.74c-1.2-0.17-1.8-0.59-1.8-1.81
	c0.04-7.81,0.07-15.62,0.09-23.44c0-1.5,0.76-1.85,2.16-1.96c8.1-0.68,8.1-0.72,8.1,7.56c0,2-0.03,3.99,0.01,5.98
	c0.03,1.31-0.19,2.78,0.31,3.9c0.7,1.57,2.34,0.58,3.58,0.62c1.96,0.05,1.93,1.41,1.93,2.79c0,5.15,0.08,10.31-0.04,15.46
	c-0.05,2.11,0.59,3.02,2.81,2.92c3.82-0.17,7.64-0.19,11.46-0.17c1.91,0.01,2.7-0.76,2.53-2.68c-0.12-1.32-0.02-2.66-0.02-3.99
	c-0.02-3.78-0.01-3.85-3.7-4.41c-2.15-0.32-3.21-1.19-3.13-3.54c0.14-4.32,0.16-8.65,0-12.96c-0.09-2.5,0.67-3.57,3.3-3.69
	c3.35-0.15,3.35-0.35,3.55-3.74c0.07-1.16,0.16-2.32,0.12-3.48c-0.12-3.3-0.14-3.29-3.65-3.58c-3.97-0.32-3.97-0.32-4.03-4.46
	c-0.01-0.5-0.03-1,0.01-1.5c0.14-1.8-0.66-3.86,0.4-5.34c1.21-1.69,3.41-0.5,5.15-0.78c0.64-0.1,1.71,0.05,1.75-0.55
	c0.25-3.32,2.72-2.14,4.43-2.22c1.67-0.07,3.34-0.48,4.73,1.53c1.06,1.54,3.43,0.54,5.2,0.62c1.48,0.07,2.09,0.64,2.07,2.09
	c-0.04,2.49-0.1,4.99,0.01,7.48c0.1,2.19-0.92,3-2.95,2.97c-0.66-0.01-1.33,0.18-1.99,0.13c-1.66-0.13-2.43,0.5-2.4,2.24
	c0.01,0.97-0.41,1.94-0.48,2.92c-0.33,5.11-0.32,5.17,4.69,5.69c1.64,0.17,2.32,0.74,2.3,2.43c-0.07,4.82-0.11,9.64,0.02,14.46
	c0.06,2.33-0.76,3.22-3.13,3.32c-3.86,0.16-3.93,0.31-3.88,4.15c0.11,7.79-1.36,6.94,6.7,7.01c2.49,0.02,4.99-0.07,7.48,0.02
	c2.14,0.08,2.91-0.76,2.85-2.93c-0.13-4.82,0.13-9.65-0.13-14.46c-0.12-2.16,0.33-2.91,2.5-3.06c3.31-0.22,3.35-0.36,3.4-3.72
	c0.05-3.99,0.06-7.98-0.05-11.97c-0.06-2.03,0.5-3.17,2.75-3.06c2.16,0.1,4.61-0.58,6.41,0.24c2.24,1.02,0.64,3.88,1.22,5.88
	c0.78,2.71,0.58,5.62,0.14,8.4c-0.4,2.49-0.39,4.92-0.13,7.41c0.45,4.17-0.17,5.02-4.05,5.02c-3.58,0-3.25,0.73-3.17,3.46
	c0.06,2.16,0.09,4.33-0.01,6.48c-0.1,2.21,0.95,2.98,3.02,2.85c3.47-0.22,6.94-0.33,10.4-0.59c2.4-0.18,3.2,0.86,3.17,3.21
	c-0.09,7.98-0.03,15.96-0.04,23.94c0,4.49-0.35,4.38,4.26,4.37c23.27-0.01,46.54-0.01,69.8,0c3.15,0,6.31,0.04,9.46,0.05
	c1.7,0,2.1,0.68,1.1,2.09c-1.15,1.61-2.15,3.38-3.5,4.79c-3.01,3.14-3.8,6.84-3.31,10.97c0.31,2.59-1.2,5.87,0.74,7.62
	c1.87,1.69,5.08,0.44,7.7,0.55c3.15,0.12,6.32,0.1,9.47,0.01c1.69-0.05,2.39,0.49,2.33,2.26c-0.11,3.16,0.01,6.32-0.04,9.48
	c-0.05,3.34-0.09,3.38-3.24,3.47c-2.33,0.06-4.66,0.14-6.98-0.02c-2.26-0.16-2.98,0.83-2.75,2.89c0.04,0.33,0.02,0.67-0.01,1
	c-0.14,2.13,0.94,4.83-0.39,6.27c-1.72,1.86-4.7,0.83-7.12,0.83C325.72,175.58,283.99,175.57,242.27,175.57z"/>
<path class="st1" d="M311.2,376.84c-6.31,0.04-12.62,0.08-18.93,0.1c-0.57,0-1.44,0.33-1.62-0.45c-0.18-0.77,0.75-0.99,1.25-1.36
	c9.51-7.14,19.76-13.05,30.17-18.77c10.68-5.88,21.75-10.92,32.92-15.73c7.48-3.22,15.21-5.88,22.96-8.42
	c8.7-2.85,17.5-5.38,26.31-7.84c6.76-1.89,13.63-3.37,20.4-5.23c6.08-1.67,7.16-3.25,7.17-9.42c0.04-39.71,0.09-79.41,0.1-119.12
	c0.01-36.22-0.04-72.43-0.05-108.65c0-1.82,0.11-3.65,0.18-5.47c6.8,0.19,6.8,0.19,6.8,6.89c0,79.41,0,158.83,0,238.24
	c0,0.66,0,1.33,0,1.99c-0.03,4.85-0.45,4.98-5.34,5.53c-7.11,0.79-14.2,2.01-21.05,4.01c-9.98,2.92-20.16,5.16-29.96,8.67
	c-12.88,4.62-25.74,9.26-38.41,14.48c-8.87,3.65-17.31,8.18-26.17,11.82c-1.77,0.73-3.26,2.15-5.07,2.98
	C310.21,372.31,311.31,374.8,311.2,376.84z"/>
<path class="st1" d="M52.53,76.51c0.07,2.82,0.2,5.64,0.21,8.47c0.03,74,0.04,148,0.06,222c0,3.24,0.31,6.13,2.6,9
	c1.86,2.33,4.03,3.6,6.45,3.93c10.72,1.47,21.1,4.36,31.42,7.37c5.47,1.6,10.92,3.44,16.3,5.36c9.7,3.46,19.39,6.93,28.81,11.18
	c15,6.78,29.62,14.18,43.24,23.5c3.93,2.69,7.94,5.28,11.76,8.14c0.35,0.26,0.48,0.79,0.72,1.2c-0.44,0.1-0.89,0.3-1.33,0.29
	c-5.82-0.04-11.63-0.11-17.45-0.18c0.02-1.16-0.01-2.33,0.07-3.49c0.09-1.31-0.41-2.02-1.61-2.67c-2.43-1.31-4.93-2.48-7.38-3.73
	c-11.23-5.74-22.88-10.43-34.61-15c-9.67-3.77-19.57-6.81-29.36-10.18c-10.8-3.72-21.82-6.31-32.82-9.11
	c-6.13-1.56-12.32-3.01-18.67-3.56c-3.49-0.3-4.23-1.1-4.25-4.55c-0.03-6.15-0.01-12.29-0.01-18.44c0-74.09,0-148.18,0-222.26
	c0-0.5,0-1,0-1.5C46.67,76.62,46.67,76.62,52.53,76.51z"/>
<path class="st0" d="M198.59,264.92c0-17.62,0-35.24,0-52.86c0-0.5-0.04-1,0.01-1.5c0.14-1.47,0.86-3.19,0.33-4.35
	c-0.68-1.48-2.68-0.47-4.08-0.74c-0.93-0.18-1.48-0.63-1.47-1.62c0-0.5-0.05-1-0.01-1.5c0.24-2.92-1.33-6.75,0.77-8.51
	c1.71-1.44,5.37-0.65,8.17-0.67c6.48-0.06,12.97-0.06,19.45,0c3.2,0.03,3.22,0.11,3.29,3.38c0.04,1.66,0.02,3.33,0,4.99
	c-0.04,3.44-0.03,3.6-3.66,3.91c-1.9,0.16-2.1,1.1-2.09,2.57c0.01,3.16-0.06,6.32-0.06,9.48c-0.01,22.94,0.02,45.89-0.01,68.83
	c-0.02,14.96-0.09,29.92-0.18,44.88c-0.01,1.07,0.63,2.57-0.35,3.12c-0.79,0.45-1.54-1-2.37-1.5c-4.9-2.95-9.43-6.56-14.7-8.86
	c-2.92-1.27-3.56-3.19-3.53-6.19c0.14-17.62,0.07-35.24,0.07-52.87C198.31,264.92,198.45,264.92,198.59,264.92z"/>
<path class="st0" d="M267.44,289.65c0-7.98-0.07-15.96,0.02-23.94c0.09-7.29,0.53-14.58,0.5-21.87
	c-0.04-11.44-0.34-22.88-0.55-34.33c-0.06-3.44-0.13-3.79-3.49-4.07c-2.36-0.2-2.79-1.24-2.64-3.16c0.22-2.8-1.22-6.29,0.4-8.21
	c1.7-2.01,5.29-0.69,8.04-0.73c6.81-0.11,13.63,0.06,20.44-0.09c2.46-0.06,3.28,0.72,2.97,3.12c-0.21,1.64-0.09,3.32-0.17,4.98
	c-0.16,3.43-0.17,3.53-3.68,3.96c-1.5,0.18-2.02,0.75-1.95,2.17c0.06,1.33,0.01,2.66,0.01,3.99c0,32.25-0.02,64.5,0.02,96.75
	c0,3.3,0.2,6.62,0.59,9.9c0.29,2.36-0.59,3.7-2.56,4.8c-5.04,2.81-9.98,5.78-14.72,9.09c-2.23,1.55-2.46,1.36-2.68-1.57
	c-0.97-12.42-0.42-24.86-0.56-37.29C267.42,291.98,267.44,290.82,267.44,289.65z"/>
<path class="st0" d="M307.35,303.77c0.8-7.27,0.6-14.57,0.54-21.85c-0.04-4.79-0.5-9.59-0.5-14.38c0.01-5.44,0.71-10.9,0.44-16.32
	c-0.71-14.26-0.29-28.52-0.58-42.78c-0.05-2.28-0.5-3.49-3.02-3.1c-1.86,0.29-2.21-0.79-2.16-2.37c0.08-2.32,0.16-4.66-0.02-6.97
	c-0.17-2.3,0.86-2.73,2.9-2.72c7.14,0.05,14.28-0.05,21.42-0.13c1.65-0.02,3.31,0.22,4.94-0.33c2.4-0.81,2.91,0.5,2.77,2.55
	c-0.13,1.82-0.11,3.65-0.29,5.47c-0.12,1.3,0.63,2.72-0.25,3.86c-0.96,1.24-2.48,0.57-3.74,0.64c-1.3,0.07-1.74,0.64-1.71,1.84
	c0.03,1.16,0,2.33,0,3.49c0,28.9,0.01,57.8,0.01,86.7c0,4.74-0.03,4.69-4.19,6.45c-4.69,1.98-9.34,4.04-14.01,6.07
	c-1.64,0.71-2.55,0.28-2.54-1.61C307.35,306.76,307.35,305.27,307.35,303.77z"/>
<path class="st0" d="M178.43,258.75c0,15.94,0,31.88,0,47.82c0,4.39-0.02,4.41-4.2,2.52c-4.32-1.95-8.54-4.2-12.99-5.78
	c-2.47-0.88-2.87-2.19-2.85-4.39c0.07-7.97,0.03-15.94,0.03-23.91c0-21.25,0-42.5,0-63.76c0-1-0.1-2,0.02-2.99
	c0.25-2.17-0.74-3.16-2.8-2.9c-2.72,0.35-3.51-0.85-3.22-3.36c0.31-2.77-1.19-6.32,0.62-8.14c1.79-1.8,5.32-0.48,8.09-0.54
	c6.8-0.14,13.61-0.09,20.41-0.22c2.01-0.04,3.14,0.39,2.92,2.7c-0.15,1.65-0.03,3.32-0.03,4.98c-0.02,4.02-0.02,4.11-4.06,4.51
	c-1.54,0.15-1.94,0.75-1.92,2.15c0.04,4.98,0.01,9.96,0.01,14.94C178.43,234.51,178.43,246.63,178.43,258.75z"/>
<path class="st0" d="M137.69,249.73c0,12.79,0,25.59,0,38.38c0,1.16-0.04,2.33-0.01,3.49c0.04,1.64-0.91,2.09-2.21,1.61
	c-5.67-2.1-11.29-4.36-16.97-6.43c-2.1-0.77-1.97-2.33-1.97-4.01c0.02-10.13,0.01-20.27,0.01-30.4
	c-0.01-14.12-0.01-28.25-0.03-42.37c0-3.96-0.02-4.04-4.09-4.46c-1.43-0.15-2.11-0.6-2.06-2.07c0.08-2.65,0.22-5.32,0.12-7.97
	c-0.07-1.83,0.83-2.3,2.38-2.3c2.66-0.01,5.32-0.04,7.97-0.05c6.31-0.01,12.63,0.06,18.94-0.04c2.05-0.03,3.11,0.48,2.92,2.75
	c-0.15,1.82,0,3.65-0.04,5.48c-0.02,1.15,0.15,2.42-0.28,3.41c-0.57,1.29-2.05,0.68-3.14,0.73c-1.31,0.06-1.71,0.74-1.71,1.88
	c0,2.66,0,5.32,0,7.98c0,11.46,0,22.93,0,34.39C137.58,249.73,137.63,249.73,137.69,249.73z"/>
<path class="st0" d="M348.98,249.68c0-13.28-0.06-26.56,0.05-39.84c0.02-2.7-0.25-4.65-3.56-4.5c-1.3,0.06-1.67-0.75-1.64-1.9
	c0.08-2.65-0.05-5.28-0.54-7.9c-0.31-1.69,0.58-2.4,2.26-2.39c9.13,0.02,18.26,0.03,27.39-0.01c1.48-0.01,2.07,0.57,2.05,2.03
	c-0.05,2.66-0.09,5.32,0.02,7.97c0.07,1.78-0.7,2.16-2.34,2.26c-3.69,0.24-3.66,0.35-3.65,3.45c0.06,24.57,0.12,49.14,0.16,73.7
	c0.01,4.08-0.04,4.04-3.88,5.38c-3.86,1.34-7.72,2.72-11.54,4.17c-4.8,1.82-4.78,1.85-4.78-3.06
	C348.97,275.91,348.97,262.8,348.98,249.68z"/>
<path class="st0" d="M484.73,485.8c0,4.32-0.01,8.63,0.01,12.95c0.01,2-0.19,3.96-0.61,5.92c-1.9,8.89-7.06,13.42-16.18,13.97
	c-4.49,0.27-8.83-0.66-13.2-1.69c-2.14-0.5-2.25-1.46-1.9-3.1c0.03-0.16,0.02-0.35,0.1-0.48c0.73-1.3,0.07-3.43,1.39-4.02
	c0.87-0.39,2.42,0.74,3.66,1.2c3.19,1.18,6.5,1.29,9.81,0.98c4.64-0.44,7.22-2.85,8.25-7.3c0.3-1.31,0.98-3.12,0.13-3.79
	c-1.14-0.9-2.07,0.95-3.08,1.58c-6.33,3.99-17.3,0.28-20.83-5.96c-3.83-6.79-3.52-16.79,1.08-23.12c4.7-6.47,14.03-8.13,20.69-3.51
	c1.7,1.18,2.43,1.53,2.57-0.95c0.05-0.85,0.96-0.74,1.58-0.76c0.99-0.04,1.99-0.03,2.99-0.02c3.81,0.04,3.75,0.04,3.71,3.67
	c-0.06,4.81-0.01,9.63-0.01,14.44C484.84,485.8,484.79,485.8,484.73,485.8z M476.75,485.22c-0.18-1.47-0.21-2.99-0.58-4.42
	c-1.25-4.8-3.99-7.06-8.3-7.05c-4.21,0.01-7.43,2.44-8.57,6.9c-0.87,3.4-0.97,6.9,0.23,10.29c1.39,3.93,3.74,5.6,7.8,5.68
	c4.35,0.09,6.91-1.62,8.44-5.52C476.51,489.2,476.7,487.25,476.75,485.22z"/>
<path class="st0" d="M42.77,451.52c6.25,0.49,11.17,0.84,15.41,3.86c3.11,2.21,3.15,2.33,1.01,5.33c-0.29,0.41-0.61,0.79-0.87,1.21
	c-0.93,1.51-1.84,2.02-3.53,0.69c-3.93-3.1-8.62-3.21-13.29-2.65c-2.49,0.29-4.88,1.19-5.82,3.96c-1.04,3.06,0.07,5.95,3.23,7.44
	c2.68,1.27,5.53,2.17,8.35,3.11c2.51,0.83,4.92,1.84,7.29,3.05c5.87,2.99,7.66,8.01,7.14,14.1c-0.5,5.9-3.8,9.74-9.41,11.58
	c-8.31,2.73-16.26,1.55-23.99-2.21c-1.98-0.96-2.86-2.09-1.06-4.02c0.44-0.48,0.8-1.08,1.06-1.68c0.8-1.84,1.77-1.84,3.47-0.86
	c4.09,2.36,8.53,3.59,13.32,3.19c2.58-0.21,4.91-0.98,6.32-3.36c2.18-3.68,1.21-7.71-2.7-9.73c-2.9-1.5-6.04-2.6-9.17-3.56
	c-2.56-0.78-4.97-1.82-7.21-3.2c-5.01-3.1-7.38-8.43-6.34-14.06c1.07-5.82,4.63-9.5,10.27-10.89
	C38.79,452.19,41.33,451.04,42.77,451.52z"/>
<path class="st0" d="M174.67,476.92c0.15,7.1-0.4,15.4,0.49,23.66c0.26,2.42-0.57,3.38-2.99,3.12c-1.31-0.14-2.65-0.05-3.98-0.02
	c-1.16,0.03-1.89-0.31-1.85-1.65c0.04-1.26,0.07-2.53-1.63-0.87c-6.94,6.77-20.05,3.65-24.09-7.34c-2.07-5.63-1.64-11.33,0.47-17
	c3.48-9.39,16.21-13.26,23.37-7.27c0.49,0.41,1.15,1.07,1.65,0.66c0.36-0.3,0.21-1.25,0.22-1.91c0.02-4.48,0.04-8.96,0-13.44
	c-0.01-1.37,0.32-2.27,1.91-2.14c0.33,0.03,0.66,0,0.99,0c6.59,0.07,5.36-0.54,5.42,5.09C174.73,463.79,174.67,469.76,174.67,476.92
	z M148.54,485.36c-0.25,2.62,0.09,5.25,1.31,7.65c1.55,3.06,4.08,4.58,7.6,4.64c3.57,0.06,6.18-1.49,7.58-4.59
	c2.13-4.73,2.18-9.7,0.14-14.46c-1.41-3.29-4.09-5.04-7.9-4.88c-3.73,0.15-6.22,1.97-7.72,5.25
	C148.63,480.97,148.35,483.1,148.54,485.36z"/>
<path class="st0" d="M288.06,477.85c0-7.31,0.06-14.61-0.04-21.92c-0.03-2.13,0.14-3.37,2.86-3.27c6.86,0.26,5.53-0.48,5.6,5.5
	c0.08,7.14,0.01,14.28,0.04,21.42c0,0.62,0.03,1.55,0.4,1.79c0.97,0.64,1.41-0.46,1.9-1.01c2.98-3.34,6.08-6.6,8.83-10.13
	c1.64-2.1,3.45-2.81,5.97-2.57c1.81,0.17,3.65,0.01,5.48,0.05c0.58,0.01,1.41-0.3,1.66,0.46c0.25,0.76-0.59,1.12-1.02,1.57
	c-4.16,4.29-8.35,8.56-12.55,12.81c-2.71,2.74-3.03,2.43-0.09,5.36c4.7,4.69,9.39,9.39,14.07,14.11c0.31,0.32,0.44,0.82,0.66,1.24
	c-0.41,0.14-0.82,0.4-1.24,0.41c-1.83,0.05-3.67-0.14-5.47,0.06c-2.54,0.28-4.36-0.55-6.05-2.48c-3.05-3.5-6.3-6.83-9.55-10.16
	c-0.74-0.76-1.34-2.44-2.58-1.81c-1.03,0.52-0.38,2.11-0.4,3.22c-0.07,2.82-0.15,5.65,0.01,8.47c0.13,2.25-0.82,2.81-2.88,2.76
	c-6.93-0.15-5.5,0.58-5.58-5.44C288,491.47,288.06,484.66,288.06,477.85z"/>
<path class="st0" d="M362.19,485.62c0.01,11.56-7.13,19.01-18.28,19.07c-11.44,0.06-18.98-7.49-18.99-18.98
	c-0.01-11.46,7.58-19.14,18.97-18.99C357.57,466.9,362.57,476.33,362.19,485.62z M333.92,486.06c0.22,1.6,0.13,3.41,0.79,5.18
	c1.5,4.04,4.35,6.26,8.48,6.39c4.44,0.14,7.33-1.55,8.99-5.6c1.84-4.48,1.77-9.06-0.33-13.43c-1.77-3.67-4.93-5.16-8.99-4.84
	c-3.84,0.3-6.4,2.24-7.9,5.78C334.08,481.58,334.04,483.71,333.92,486.06z"/>
<path class="st0" d="M428.12,487.72c-3.32,0-6.65,0.13-9.96-0.04c-2.35-0.12-2.44,1.1-2.06,2.76c0.88,3.82,4.29,6.65,8.63,7.13
	c4.06,0.45,7.99-0.15,11.49-2.29c1.91-1.17,2.47-0.47,3.16,1.26c1.47,3.67,1.58,3.68-2.11,5.51c-6.58,3.27-13.36,3.64-20.13,0.79
	c-7.31-3.07-11.1-10.32-10.33-19.18c0.69-7.96,5.85-14.16,13.27-16.17c2.76-0.75,5.48-1.12,8.28-0.5
	c8.53,1.88,14.09,10.32,12.72,19.15c-0.21,1.33-0.9,1.58-1.99,1.58C435.43,487.71,431.77,487.72,428.12,487.72
	C428.12,487.72,428.12,487.72,428.12,487.72z M424.76,481.66c2.31,0,4.63-0.06,6.94,0.02c1.89,0.06,2.32-0.71,1.66-2.38
	c-1.26-3.16-3.4-5.21-6.92-5.53c-4-0.37-7.08,1.2-9.23,4.54c-1.77,2.76-1.51,3.28,1.61,3.34
	C420.8,481.7,422.78,481.66,424.76,481.66z"/>
<path class="st0" d="M223.58,487.72c-3.32,0-6.65,0.13-9.96-0.04c-2.36-0.12-2.42,1.13-2.04,2.77c0.88,3.82,4.3,6.64,8.65,7.12
	c4.06,0.45,7.99-0.16,11.48-2.3c1.93-1.18,2.47-0.43,3.16,1.28c1.47,3.66,1.57,3.67-2.13,5.51c-6.58,3.27-13.36,3.64-20.13,0.78
	c-7.3-3.08-11.09-10.34-10.32-19.18c0.69-7.96,5.86-14.15,13.28-16.16c2.76-0.75,5.48-1.12,8.28-0.49
	c8.51,1.89,14.1,10.38,12.7,19.16c-0.21,1.34-0.92,1.57-2.01,1.57C230.88,487.71,227.23,487.72,223.58,487.72
	C223.58,487.72,223.58,487.72,223.58,487.72z M220.23,481.66c2.31,0,4.63-0.06,6.94,0.02c1.89,0.06,2.32-0.71,1.66-2.38
	c-1.26-3.16-3.4-5.21-6.92-5.53c-4-0.37-7.08,1.2-9.23,4.54c-1.77,2.76-1.51,3.28,1.61,3.34
	C216.27,481.7,218.25,481.66,220.23,481.66z"/>
<path class="st0" d="M245.98,487.25c-0.11-5.34,0.39-11.33-0.68-17.25c-0.32-1.77,0.35-2.41,2.1-2.32c1.82,0.09,3.65,0.02,5.48,0.04
	c0.7,0.01,1.38,0.2,1.36,1.05c-0.11,4.85,1.86,1.44,2.96,0.7c4.46-2.98,9.19-3.71,14.14-1.61c4.21,1.78,6.52,5.38,6.74,9.72
	c0.41,8.11,0.25,16.26,0.35,24.39c0.02,1.3-0.67,1.74-1.83,1.72c-0.33,0-0.66,0.01-1,0.01c-6.85-0.07-5.44,0.59-5.54-5.46
	c-0.08-4.65-0.02-9.29-0.02-13.94c0-0.83,0.02-1.66-0.01-2.49c-0.2-5.51-2.01-7.91-6.04-8.04c-4.9-0.16-9.35,3.45-9.56,8.19
	c-0.24,5.47-0.02,10.95-0.08,16.43c-0.07,5.94,1.09,5.27-5.19,5.3c-3.11,0.01-3.14-0.08-3.17-3.35
	C245.95,496.17,245.98,492.02,245.98,487.25z"/>
<path class="st0" d="M129.89,483.86c-0.16,4.93,0.01,11.23,0.59,17.51c0.16,1.76-0.38,2.44-2.14,2.33c-1.49-0.09-2.99-0.09-4.48,0
	c-1.59,0.1-2.56-0.26-2.38-2.15c0.11-1.15-0.06-2.15-1.4-0.69c-1.01,1.1-2.05,2.18-3.47,2.78c-7.36,3.14-17.84-1.14-18.14-10.82
	c-0.24-7.63-0.04-15.28-0.12-22.92c-0.02-1.77,0.73-2.17,2.35-2.26c6.01-0.34,6.01-0.4,6.01,5.54c0,5.65-0.06,11.29,0.02,16.94
	c0.07,5.2,2.28,7.45,7.14,7.49c4.93,0.03,7.39-2.14,7.52-7.18c0.17-6.64,0.12-13.29,0.02-19.93c-0.03-2.09,0.5-3.12,2.75-2.85
	c0.98,0.12,2,0.11,2.98,0c2.19-0.24,2.85,0.73,2.79,2.84C129.8,474.5,129.89,478.49,129.89,483.86z"/>
<path class="st0" d="M282.08,553.89c0-6.14,0.05-12.28-0.03-18.42c-0.03-1.95,0.27-3.12,2.64-2.95c5.75,0.41,11.56-0.61,17.3,0.83
	c4.23,1.06,7.32,3.25,8.07,7.68c0.73,4.34-0.13,8.26-4.29,10.81c-0.54,0.33-3.06,0.67-0.07,1.84c5.12,2,6.92,5.56,6.51,11.02
	c-0.32,4.3-3.64,8.5-8.07,9.73c-2.69,0.75-5.43,1.3-8.31,1.15c-3.64-0.18-7.3-0.15-10.95,0c-2.11,0.08-2.91-0.51-2.86-2.76
	C282.17,566.51,282.08,560.2,282.08,553.89z M294.31,555.5c0,0.03,0,0.05,0,0.08c-1.5,0-2.99,0.05-4.49-0.01
	c-1.57-0.06-2.48,0.34-2.44,2.19c0.09,3.82,0.03,7.64,0.03,11.47c0,1.13,0.36,2.05,1.63,1.99c4.11-0.18,8.26,0.62,12.32-0.78
	c4.17-1.44,5.26-4.46,5.27-7.55c0.02-3.91-2.31-6.42-6.36-7.07C298.32,555.5,296.3,555.59,294.31,555.5z M287.42,544.13
	c0,1.82-0.02,3.64,0.01,5.47c0.01,0.94,0.46,1.66,1.45,1.63c3.77-0.11,7.62,0.71,11.29-0.82c2.95-1.23,4.76-4.04,4.53-7.02
	c-0.23-3.13-1.72-4.76-5.13-5.81c-1.59-0.49-3.18-0.75-4.86-0.76C287.41,536.77,287.41,536.73,287.42,544.13z"/>
<path class="st0" d="M248.34,548.06c0-4.31,0.14-8.63-0.05-12.94c-0.11-2.51,1.2-2.59,3.06-2.61c1.81-0.02,2.71,0.43,2.68,2.5
	c-0.11,8.46,0.1,16.93-0.16,25.38c-0.18,5.9-2.1,11.37-8,13.82c-6.7,2.78-13.57,2.92-19.91-1.34c-3.75-2.52-5.28-6.54-5.44-10.72
	c-0.35-9.28-0.19-18.57-0.27-27.86c-0.02-2.19,1.55-1.71,2.78-1.72c1.26-0.01,2.83-0.37,2.86,1.71c0.02,1.16,0.01,2.32,0.02,3.48
	c0,7.47-0.08,14.93,0.02,22.4c0.16,11.16,7.81,12.29,15.22,10.97c4.23-0.76,6.77-4.27,7.01-9.14c0.23-4.63,0.05-9.28,0.05-13.93
	C248.26,548.06,248.3,548.06,248.34,548.06z"/>
<path class="st0" d="M86.57,503.69c-0.83,0-1.67,0.08-2.49-0.01c-5.73-0.66-10.23-2.29-10.59-10.57c-0.23-5.3-0.08-10.62-0.13-15.93
	c-0.03-3.31-0.06-3.31-3.14-3.42c-0.5-0.02-1,0.05-1.49-0.01c-1.06-0.14-2.63,0.58-2.98-0.92c-0.33-1.4-0.23-2.99,0.06-4.42
	c0.18-0.89,1.36-0.62,2.16-0.72c1.76-0.23,3.92,0.86,5.19-0.6c1.04-1.2,0.4-3.18,0.35-4.8c-0.06-2.12,0.46-3.52,2.88-3.75
	c1.12-0.11,2.24-0.55,3.3-0.99c1.49-0.62,2.11-0.24,2.08,1.39c-0.04,2.32,0.03,4.65-0.02,6.97c-0.03,1.27,0.55,1.8,1.77,1.79
	c1.33-0.01,2.66-0.02,3.98,0.01c3.13,0.06,4.51,2.16,3.39,5.08c-0.28,0.74-0.84,0.92-1.51,0.95c-0.83,0.03-1.66,0.02-2.49,0.03
	c-5.12,0.07-5.12,0.07-5.12,5.4c0,3.48-0.02,6.97,0.01,10.45c0.05,5.75,0.93,6.69,6.48,7.01c0.5,0.03,1,0.04,1.49,0
	c1.6-0.13,1.98,0.75,1.9,2.13c-0.05,0.83-0.1,1.67,0.01,2.49c0.27,2.07-0.73,2.65-2.59,2.46C88.24,503.62,87.4,503.69,86.57,503.69z
	"/>
<path class="st0" d="M101.66,553.75c0,6.3,0.02,12.6-0.02,18.91c-0.01,1.19,0.61,2.97-1.59,2.82c-1.38-0.09-3.52,1.04-3.66-1.82
	c-0.1-2.15-1.15-1.46-2.16-0.58c-1.93,1.7-4.13,2.6-6.75,2.7c-7.62,0.3-12.49-3.32-14.37-10.79c-1.05-4.18-0.63-8.24,1.09-12.13
	c3.44-7.78,12.9-10.08,20.02-4.93c0.64,0.46,1.18,1.36,2.02,0.98c0.27-0.12,0.1-1.24,0.1-1.9c0.01-3.98-0.01-7.96,0.01-11.94
	c0.01-1.74-0.51-3.56,2.52-3.61c2.88-0.05,2.75,1.44,2.73,3.39c-0.05,6.3-0.02,12.6-0.02,18.91
	C101.63,553.75,101.65,553.75,101.66,553.75z M96.43,560.27c0.22-1.83-0.25-3.79-1.11-5.57c-1.62-3.38-4.16-5.39-8.22-5.16
	c-3.95,0.22-6.66,1.82-8.01,5.45c-1.44,3.86-1.44,7.79,0.21,11.58c1.27,2.93,3.45,4.7,6.83,4.92c3.59,0.23,6.57-0.59,8.44-3.91
	C95.81,565.38,96.53,563.04,96.43,560.27z"/>
<path class="st0" d="M435.7,564.85c0,2.49,0.04,4.99-0.01,7.48c-0.06,3.13-0.19,3.1-2.88,3.23c-2.4,0.12-2.69-1.09-2.65-3.04
	c0.09-4.15,0.03-8.31,0.03-12.47c0-1,0.04-2-0.03-2.99c-0.36-5.31-2-7.33-6.03-7.48c-4.95-0.19-9.17,2.96-9.55,7.48
	c-0.28,3.3-0.08,6.64-0.09,9.97c-0.01,1.83,0.03,3.66-0.01,5.49c-0.06,2.67-2.14,3.94-4.58,2.89c-0.97-0.42-0.91-1.25-0.91-2.06
	c-0.05-8.64-0.09-17.29-0.14-25.93c0-0.85,0.01-1.87,1.1-1.8c1.49,0.1,3.81-1.17,4.27,1.1c0.68,3.3,1.85,1.68,3.22,0.74
	c2.55-1.74,5.36-2.62,8.47-2.36c4.9,0.42,7.76,2.92,9.03,7.85c0.21,0.8,0.46,1.62,0.47,2.44c0.06,3.15,0.02,6.31,0.02,9.46
	C435.51,564.85,435.61,564.85,435.7,564.85z"/>
<path class="st0" d="M389.88,478.17c0-7.63,0.05-15.26-0.03-22.89c-0.02-1.89,0.48-2.86,2.5-2.56c0.16,0.02,0.33,0,0.5,0
	c6.55,0.09,5.39-0.57,5.41,5.11c0.06,13.93,0.02,27.87,0.01,41.8c0,4.03,0.61,4.07-4.01,4.05c-0.66,0-1.34-0.08-1.99,0.01
	c-2.13,0.3-2.46-0.84-2.42-2.64c0.08-4.64,0.03-9.29,0.03-13.93C389.88,484.14,389.88,481.16,389.88,478.17z"/>
<path class="st0" d="M379.31,478.19c0,7.63-0.04,15.26,0.03,22.89c0.02,1.83-0.46,2.88-2.49,2.61c-0.16-0.02-0.33,0-0.5,0
	c-6.61-0.07-5.39,0.56-5.42-5.06c-0.06-13.77-0.04-27.54-0.01-41.3c0.01-5.11-0.82-4.53,4.89-4.6c0.33,0,0.67,0.04,0.99,0
	c1.97-0.24,2.55,0.68,2.53,2.57C379.27,462.93,379.31,470.56,379.31,478.19z"/>
<path class="st0" d="M335.45,561.57c-3.15,0-6.3,0-9.45,0c-1.29,0-1.57,0.46-1.3,1.83c1.02,5.09,4.04,7.84,9.18,8.07
	c2.84,0.13,5.61-0.05,8.19-1.46c1.04-0.57,2.11-1.7,3.15,0.41c1.03,2.08-0.22,2.54-1.55,3.28c-9.84,5.5-21.48,1.29-24.13-8.79
	c-1.2-4.54-0.62-8.94,1.79-12.94c4.12-6.84,10.45-7.69,16.85-6.16c5.29,1.27,8.92,7.48,8.73,13.67c-0.04,1.47-0.55,2.1-2.02,2.08
	c-3.15-0.03-6.3-0.01-9.45-0.01C335.45,561.56,335.45,561.56,335.45,561.57z M333.37,557.48c0,0,0,0.01,0,0.01
	c2.16,0,4.31-0.07,6.47,0.02c1.84,0.07,2.34-0.69,1.83-2.37c-1.13-3.73-3.66-5.34-7.77-5.61c-4.27-0.28-7.64,2.64-8.71,6.01
	c-0.34,1.07-0.28,1.96,1.22,1.94C328.73,557.46,331.05,557.48,333.37,557.48z"/>
<path class="st0" d="M125.89,561.56c-2.98,0-5.97,0.06-8.95-0.02c-1.95-0.05-1.95,0.71-1.63,2.39c1.3,6.85,7.64,8.77,15,6.98
	c0.95-0.23,1.82-0.77,2.72-1.2c1.13-0.54,2.01-0.93,2.69,0.75c0.53,1.3,0.53,1.99-0.71,2.8c-5.33,3.52-15.97,3.64-20.93-1.15
	c-4.88-4.72-6.15-13.41-2.49-19.77c4.14-7.19,10.23-7.94,16.66-6.67c5.47,1.08,9.4,7.51,9.15,13.85c-0.06,1.5-0.64,2.05-2.07,2.03
	C132.19,561.53,129.04,561.55,125.89,561.56C125.89,561.55,125.89,561.56,125.89,561.56z M123.68,557.49c2.32,0,4.64-0.04,6.96,0.01
	c1.7,0.04,1.91-0.86,1.56-2.2c-0.82-3.14-3.21-5.33-6.17-5.69c-4.59-0.56-7.75,0.88-9.69,4.42c-1.52,2.78-1.21,3.38,1.86,3.46
	C120.03,557.53,121.85,557.49,123.68,557.49z"/>
<path class="st0" d="M195.28,555.64c0-5.32-0.07-10.64,0.03-15.96c0.04-2.1-0.58-3-2.81-2.88c-2.82,0.16-5.65,0-8.48,0.05
	c-1.61,0.03-2.42-0.5-2.43-2.27c-0.01-1.98,1.18-2.04,2.61-2.04c9.31,0.01,18.62,0.03,27.93-0.01c1.64-0.01,2.38,0.45,2.35,2.24
	c-0.03,1.91-1.07,2.1-2.56,2.08c-2.66-0.04-5.32-0.06-7.98,0c-3.22,0.08-3.3,0.12-3.32,3.42c-0.05,8.65-0.02,17.29-0.02,25.94
	c0,2.33-0.13,4.66,0.03,6.98c0.16,2.24-1.1,2.32-2.77,2.37c-1.83,0.06-2.7-0.36-2.65-2.47
	C195.37,567.28,195.28,561.46,195.28,555.64z"/>
<path class="st0" d="M184.35,485.24c0-4.8,0.09-9.59-0.04-14.39c-0.06-2.17,0.23-3.32,2.88-3.22c6.58,0.25,5.38-0.45,5.43,5.11
	c0.07,8.93,0.02,17.86,0.02,26.79c0,4.44,0.38,4.16-3.87,4.14c-5.08-0.02-4.38,0.44-4.41-4.55
	C184.33,494.5,184.35,489.87,184.35,485.24z"/>
<path class="st0" d="M379.04,553.01c0-6.3,0.06-12.6-0.04-18.9c-0.03-1.94,0.62-2.62,2.56-2.6c1.92,0.02,3.06,0.23,3.04,2.66
	c-0.11,12.93-0.09,25.87-0.01,38.8c0.01,1.99-0.69,2.6-2.59,2.59c-1.91-0.01-3.07-0.22-3.01-2.66
	C379.14,566.28,379.04,559.64,379.04,553.01z"/>
<path class="st0" d="M145.48,560.27c0-3.99-0.03-7.97,0.02-11.96c0.01-1.02-0.71-2.68,1.15-2.68c1.56,0,3.84-1.27,4.42,1.54
	c0.29,1.39,0.73,1.78,1.78,0.65c1.96-2.09,4.4-2.81,7.19-2.77c1.39,0.02,2.24,0.34,2.16,1.93c-0.07,1.32,0.19,2.5-1.9,2.68
	c-7.46,0.66-9.02,2.46-9.07,9.97c-0.03,4.49-0.1,8.98,0.03,13.46c0.06,2.13-0.96,2.49-2.73,2.45c-1.63-0.03-2.92-0.07-2.86-2.31
	c0.11-4.32,0.03-8.64,0.03-12.97C145.63,560.27,145.55,560.27,145.48,560.27z"/>
<path class="st0" d="M355,559.85c0-3.82-0.03-7.64,0.02-11.46c0.01-1.02-0.73-2.68,1.07-2.74c1.56-0.05,3.9-1.27,4.47,1.46
	c0.47,2.24,1.24,1.34,2.13,0.43c2.02-2.09,4.56-2.51,7.31-2.48c1.74,0.02,1.73,1.12,1.74,2.35c0.01,1.28-0.14,2.36-1.83,2.21
	c-0.33-0.03-0.67-0.04-1-0.02c-5.38,0.3-7.89,2.62-8.1,7.98c-0.2,4.98-0.02,9.97-0.06,14.96c-0.02,2.65-2.19,3.95-4.59,2.85
	c-1.2-0.55-0.91-1.63-0.91-2.56c-0.02-4.32-0.01-8.64-0.01-12.97C355.15,559.85,355.08,559.85,355,559.85z"/>
<path class="st0" d="M399.11,560.52c0,4.15-0.08,8.31,0.03,12.46c0.05,1.93-0.59,2.67-2.55,2.58c-1.63-0.08-2.81-0.05-2.77-2.32
	c0.12-8.47,0.12-16.95,0-25.43c-0.03-2.27,1.14-2.25,2.77-2.33c1.95-0.09,2.6,0.64,2.55,2.57
	C399.03,552.21,399.11,556.37,399.11,560.52z"/>
<path class="st0" d="M188.87,452.73c4.24-0.02,3.74-0.1,3.75,4.18c0.01,3.91-0.01,3.91-4.56,3.87c-4.2-0.03-3.7,0.48-3.71-4.68
	C184.36,452.67,184.41,452.67,188.87,452.73z"/>
<path class="st0" d="M396.66,532.57c1.96-0.35,2.43,0.62,2.51,2.51c0.11,2.5-1.26,2.46-3.08,2.58c-2.37,0.15-2.12-1.29-2.26-2.83
	C393.62,532.53,394.97,532.44,396.66,532.57z"/>
</svg>
