<svg width="106" height="80" xmlns="http://www.w3.org/2000/svg" xmlns:xlink="http://www.w3.org/1999/xlink" xml:space="preserve" overflow="hidden"><defs><clipPath id="clip0"><rect x="1114" y="40" width="106" height="80"/></clipPath></defs><g clip-path="url(#clip0)" transform="translate(-1114 -40)"><path d="M74.4549 79.2024C80.6148 79.2024 85.0484 77.3714 88.488 75.0696 91.6922 72.9248 94.1771 70.3745 96.0865 67.0919 98.5452 62.8545 98.8068 58.9048 99.0161 56.6292 99.0161 56.6161 103.607 9.08944 103.607 9.08944L81.2164 9.08944C81.2164 9.08944 74.4419 79.2024 74.4549 79.2024Z" fill="#C40D1E" transform="matrix(1.0231 0 0 1 1114 40.3988)"/><path d="M52.8888 22.2724 49.5015 57.44C48.926 65.1301 51.8164 69.0798 53.6081 71.1592 56.8908 74.965 62.9068 77.9469 69.8645 79.2024 70.0606 77.1622 76.3513 11.9274 76.3513 11.9144 76.5606 8.72325 75.632 5.92449 73.5002 3.49191 71.0154 0.653917 67.3273 0 65.8102 0L10.2796 0C6.17297 0 0 3.97581 0 10.855 0 19.3559 7.55928 22.2724 10.1488 22.2724 11.4828 22.2724 52.8888 22.2724 52.8888 22.2724Z" fill="#C40D1E" transform="matrix(1.0231 0 0 1 1114 40.3988)"/><path d="M21.2915 70.0345C21.8147 64.437 25.4766 26.7975 25.4766 26.7975L47.9059 26.8498 43.747 70.0345 21.2915 70.0345Z" fill="#C40D1E" transform="matrix(1.0231 0 0 1 1114 40.3988)"/><path d="M95.3672 48.2721C95.2626 49.3838 95.0664 50.2339 94.7656 51.097L83.4267 51.084 83.5967 49.3707 87.2194 49.3707C87.6771 49.3707 88.3049 49.423 88.7103 49.5146L88.7103 49.4884C87.7687 49.0699 87.2456 48.1283 87.3633 46.9643 87.5464 45.081 88.9719 44.0478 91.3391 44.0478 94.0463 44.0609 95.6157 45.6434 95.3672 48.2721ZM88.7103 47.422C88.5926 48.7037 89.992 49.3838 91.326 49.3838L93.7586 49.3838C93.9024 49.0307 93.994 48.6383 94.0332 48.1413 94.164 46.7812 93.4316 45.8526 91.3129 45.8526 89.7304 45.8526 88.815 46.3496 88.7103 47.422Z" fill="#FFFFFF" transform="matrix(1.0231 0 0 1 1114 40.3988)"/><path d="M92.6469 35.9 92.163 40.9483C93.9417 41.0006 94.8048 40.229 94.9618 38.6072 95.0402 37.8356 94.9487 37.0378 94.7264 36.3185L96.0604 36.0962C96.2958 36.9201 96.3873 37.9141 96.2958 38.908 96.0604 41.3537 94.661 42.7008 91.9014 42.7008 89.5473 42.7008 87.8864 41.3406 88.1087 39.0388 88.3311 36.7763 89.9005 35.8346 91.6922 35.8346 91.9538 35.8346 92.3199 35.8477 92.6469 35.9ZM89.3643 39.1304C89.2727 40.0851 89.9135 40.7521 90.999 40.909L91.326 37.5479C90.2274 37.5087 89.4689 38.1364 89.3643 39.1304Z" fill="#FFFFFF" transform="matrix(1.0231 0 0 1 1114 40.3988)"/><path d="M90.6721 29.8709C90.2143 31.4534 91.2345 32.2119 93.5885 32.225L96.7797 32.225 96.6096 33.9383 88.7496 33.9252 88.9065 32.3035C89.3512 32.3035 90.0443 32.3558 90.6329 32.4604L90.6329 32.4343C89.6127 32.0812 88.7103 31.2834 89.0111 29.8055L90.6721 29.8709Z" fill="#FFFFFF" transform="matrix(1.0231 0 0 1 1114 40.3988)"/><path d="M97.1589 28.3407 85.6238 28.3277 85.7939 26.6144 97.329 26.6275 97.1589 28.3407Z" fill="#FFFFFF" transform="matrix(1.0231 0 0 1 1114 40.3988)"/><path d="M88.3834 23.4233C88.3311 24.0249 87.821 24.5219 87.2194 24.5219 86.6309 24.5219 86.2124 24.0249 86.2647 23.4233 86.317 22.8348 86.8401 22.3378 87.4287 22.3378 88.0172 22.3378 88.4357 22.8348 88.3834 23.4233ZM97.5513 24.2995 89.6912 24.2865 89.8612 22.5732 97.7213 22.5863 97.5513 24.2995Z" fill="#FFFFFF" transform="matrix(1.0231 0 0 1 1114 40.3988)"/><path d="M98.4145 15.3016 93.3662 15.3016C92.3853 15.3016 91.7707 15.5763 91.6922 16.4787 91.5745 17.6819 92.7385 18.5582 94.3209 18.5582L98.1006 18.5582 97.9306 20.2714 90.0705 20.2583 90.2405 18.6235C90.6721 18.6235 91.3391 18.6628 91.7707 18.7413L91.7707 18.7282C90.8029 18.2704 90.2013 17.3026 90.332 15.9686 90.5021 14.1638 91.6922 13.6145 93.0785 13.6145L98.5845 13.6145 98.4145 15.3016Z" fill="#FFFFFF" transform="matrix(1.0231 0 0 1 1114 40.3988)"/></g></svg>